MARO CHARITRA (1978) 1CD DVDRIP TELUGU MOVIE - TELUGUPPLS


FOR SCREENSHOTS SEE HERE

 
http://teluguppls.blogspot.com/2011/04/maro-charitra-1979-dvdrip-telugu-movie.html



DESCRIPTION


General

Format                           : AVI
Format/Info                      : Audio Video Interleave
File size                        : 701 MiB
Duration                         : 2h 38mn
Overall bit rate                 : 617 Kbps


Video

Format                           : MPEG-4 Visual
Format settings, Matrix          : Default (H.263)
Codec ID/Hint                    : DivX 5
Duration                         : 2h 38mn
Bit rate                         : 479 Kbps
Width                            : 512 pixels
Height                           : 384 pixels
Display aspect ratio             : 4:3
Frame rate                       : 25.000 fps
Color space                      : YUV
Chroma subsampling               : 4:2:0
Bit depth                        : 8 bits
Bits/(Pixel*Frame)               : 0.097
Stream size                      : 544 MiB (78%)


Audio

Format                           : MPEG Audio
Codec ID/Hint                    : MP3
Duration                         : 2h 38mn
Bit rate mode                    : Constant
Bit rate                         : 128 Kbps
Channel(s)                       : 2 channels
Sampling rate                    : 44.1 KHz
Compression mode                 : Lossy
Stream size                      : 145 MiB (21%)



POST A COMMENT....................